<svg width="38" height="38" viewBox="0 0 38 38" fill="none" xmlns="http://www.w3.org/2000/svg">
<rect width="38" height="38" rx="19" fill="#D4FF00"/>
<path d="M11.083 19.0002C11.083 15.2682 11.083 13.4022 12.2424 12.2429C13.4017 11.0835 15.2677 11.0835 18.9997 11.0835C22.7316 11.0835 24.5976 11.0835 25.757 12.2429C26.9163 13.4022 26.9163 15.2682 26.9163 19.0002C26.9163 22.7321 26.9163 24.5981 25.757 25.7575C24.5976 26.9168 22.7316 26.9168 18.9997 26.9168C15.2677 26.9168 13.4017 26.9168 12.2424 25.7575C11.083 24.5981 11.083 22.7321 11.083 19.0002Z" stroke="#141B34" stroke-width="1.25"/>
<path d="M15.667 20.4583C15.667 20.4583 17.0003 21.2188 17.667 22.3333C17.667 22.3333 19.667 17.9583 22.3337 16.5" stroke="#141B34" stroke-width="1.25" stroke-linecap="round" stroke-linejoin="round"/>
</svg>
