<svg width="38" height="38" viewBox="0 0 38 38" fill="none" xmlns="http://www.w3.org/2000/svg">
<rect width="38" height="38" rx="19" fill="#D4FF00"/>
<path d="M21.6386 9.8335L22.1369 10.765C22.4738 11.3947 22.6422 11.7096 22.5308 11.8444C22.4194 11.9793 22.0526 11.8704 21.3189 11.6526C20.5854 11.4348 19.8067 11.3176 18.9997 11.3176C14.6274 11.3176 11.083 14.7572 11.083 19.0002C11.083 20.3995 11.4685 21.7114 12.1421 22.8414M16.3608 28.1668L15.8625 27.2354C15.5256 26.6056 15.3571 26.2907 15.4685 26.1559C15.5799 26.021 15.9468 26.1299 16.6804 26.3478C17.4139 26.5655 18.1927 26.6827 18.9997 26.6827C23.3719 26.6827 26.9163 23.2431 26.9163 19.0002C26.9163 17.6008 26.5308 16.2889 25.8572 15.1589" stroke="#141B34" stroke-width="1.25" stroke-linecap="round" stroke-linejoin="round"/>
</svg>
