<svg width="38" height="38" viewBox="0 0 38 38" fill="none" xmlns="http://www.w3.org/2000/svg">
<rect width="38" height="38" rx="19" fill="#D4FF00"/>
<path d="M23.1859 11.5278L22.3905 11.3159C20.1405 10.7164 19.0155 10.4167 18.1292 10.9255C17.243 11.4343 16.9415 12.5529 16.3387 14.7902L15.4861 17.9542C14.8832 20.1915 14.5817 21.3101 15.0934 22.1914C15.6051 23.0726 16.7301 23.3724 18.9801 23.9719L19.7756 24.1838C22.0255 24.7833 23.1505 25.083 24.0368 24.5742C24.923 24.0654 25.2245 22.9468 25.8274 20.7095L26.68 17.5455C27.2828 15.3082 27.5843 14.1896 27.0726 13.3083C26.5609 12.427 25.4359 12.1273 23.1859 11.5278Z" stroke="#141B34" stroke-width="1.25"/>
<path d="M23.0445 15.1941C23.0445 15.8725 22.4914 16.4224 21.8092 16.4224C21.1269 16.4224 20.5738 15.8725 20.5738 15.1941C20.5738 14.5157 21.1269 13.9657 21.8092 13.9657C22.4914 13.9657 23.0445 14.5157 23.0445 15.1941Z" stroke="#141B34" stroke-width="1.25"/>
<path d="M19.0003 26.4554L18.2067 26.6715C15.962 27.2828 14.8397 27.5884 13.9555 27.0696C13.0713 26.5508 12.7706 25.4102 12.1691 23.1291L11.3185 19.903C10.717 17.6218 10.4163 16.4813 10.9268 15.5827C11.3684 14.8054 12.3337 14.8337 13.5837 14.8336" stroke="#141B34" stroke-width="1.25" stroke-linecap="round"/>
</svg>
